<svg xmlns="http://www.w3.org/2000/svg" version="1.1"
     viewBox="0 0 14.939331374563407 6.0985021842224985">
    <g transform="matrix(1,0,0,1,5.719116833224142,1.9671350587305676)">
        <g clip-path="url(#SvgjsClipPath1000)">
            <path d=" M -4.939731482225785 -1.1877497077322106 L -0.40000000000000036 -1.1877497077322106 L -0.40000000000000036 3.3519817744935736 L -4.939731482225785 3.3519817744935736 Z"
                  fill="#343432" transform="matrix(1,0,0,1,0,0)" fill-rule="nonzero"
                  mask="url(#maskedMgText-8350cb51-6cd7-4812-9cba-2685de39ad2c)"></path>
        </g>
        <g>
            <path d=" M 0.10693359375 0.010986328125 L 0.2607421875 0.010986328125 L 0.56396484375 0.84814453125 L 0.568359375 0.84814453125 Q 0.566162109375 0.81884765625 0.5625 0.782958984375 Q 0.558837890625 0.7470703125 0.555908203125 0.7012939453125 Q 0.552978515625 0.655517578125 0.55078125 0.59765625 Q 0.548583984375 0.539794921875 0.548583984375 0.46728515625 L 0.548583984375 0.010986328125 L 0.718505859375 0.010986328125 L 0.718505859375 1.261962890625 L 0.563232421875 1.261962890625 L 0.261474609375 0.44677734375 L 0.255615234375 0.44677734375 Q 0.2578125 0.479736328125 0.261474609375 0.5181884765625 Q 0.26513671875 0.556640625 0.26806640625 0.608642578125 Q 0.27099609375 0.66064453125 0.273193359375 0.7298583984375 Q 0.275390625 0.799072265625 0.275390625 0.894287109375 L 0.275390625 1.261962890625 L 0.10693359375 1.261962890625 L 0.10693359375 0.010986328125 M 1.209228515625 1.27294921875 Q 1.17919921875 1.27294921875 1.14404296875 1.2681884765625 Q 1.10888671875 1.263427734375 1.074462890625 1.248046875 Q 1.0400390625 1.232666015625 1.0081787109375 1.2044677734375 Q 0.976318359375 1.17626953125 0.9517822265625 1.130126953125 Q 0.92724609375 1.083984375 0.91259765625 1.0162353515625 Q 0.89794921875 0.948486328125 0.89794921875 0.854736328125 L 0.89794921875 0.41162109375 Q 0.89794921875 0.317138671875 0.9129638671875 0.2501220703125 Q 0.927978515625 0.18310546875 0.952880859375 0.1373291015625 Q 0.977783203125 0.091552734375 1.0096435546875 0.064453125 Q 1.04150390625 0.037353515625 1.0762939453125 0.0230712890625 Q 1.111083984375 0.0087890625 1.1455078125 0.00439453125 Q 1.179931640625 0 1.209228515625 0 Q 1.237060546875 0 1.2711181640625 0.0040283203125 Q 1.30517578125 0.008056640625 1.3392333984375 0.0216064453125 Q 1.373291015625 0.03515625 1.405517578125 0.0618896484375 Q 1.437744140625 0.088623046875 1.462646484375 0.1343994140625 Q 1.487548828125 0.18017578125 1.5025634765625 0.2479248046875 Q 1.517578125 0.315673828125 1.517578125 0.41162109375 L 1.517578125 0.854736328125 Q 1.517578125 0.94775390625 1.502197265625 1.0147705078125 Q 1.48681640625 1.081787109375 1.4619140625 1.1282958984375 Q 1.43701171875 1.1748046875 1.4044189453125 1.2030029296875 Q 1.371826171875 1.231201171875 1.3377685546875 1.2469482421875 Q 1.3037109375 1.2626953125 1.27001953125 1.267822265625 Q 1.236328125 1.27294921875 1.209228515625 1.27294921875 M 1.209228515625 1.130126953125 Q 1.237060546875 1.130126953125 1.2579345703125 1.12060546875 Q 1.27880859375 1.111083984375 1.2923583984375 1.087646484375 Q 1.305908203125 1.064208984375 1.3128662109375 1.0257568359375 Q 1.31982421875 0.9873046875 1.31982421875 0.9287109375 L 1.31982421875 0.359619140625 Q 1.31982421875 0.299560546875 1.3128662109375 0.25927734375 Q 1.305908203125 0.218994140625 1.2923583984375 0.1944580078125 Q 1.27880859375 0.169921875 1.2579345703125 0.15966796875 Q 1.237060546875 0.1494140625 1.209228515625 0.1494140625 Q 1.1806640625 0.1494140625 1.159423828125 0.15966796875 Q 1.13818359375 0.169921875 1.124267578125 0.1944580078125 Q 1.1103515625 0.218994140625 1.1033935546875 0.25927734375 Q 1.096435546875 0.299560546875 1.096435546875 0.359619140625 L 1.096435546875 0.9287109375 Q 1.096435546875 0.9873046875 1.1033935546875 1.0257568359375 Q 1.1103515625 1.064208984375 1.124267578125 1.087646484375 Q 1.13818359375 1.111083984375 1.159423828125 1.12060546875 Q 1.1806640625 1.130126953125 1.209228515625 1.130126953125 M 1.812744140625 0.160400390625 L 1.611328125 0.160400390625 L 1.611328125 0.010986328125 L 2.203125 0.010986328125 L 2.203125 0.160400390625 L 2.00244140625 0.160400390625 L 2.00244140625 1.261962890625 L 1.812744140625 1.261962890625 L 1.812744140625 0.160400390625 M 2.331298828125 0.010986328125 L 2.794921875 0.010986328125 L 2.794921875 0.160400390625 L 2.52099609375 0.160400390625 L 2.52099609375 0.53466796875 L 2.732666015625 0.53466796875 L 2.732666015625 0.68408203125 L 2.52099609375 0.68408203125 L 2.52099609375 1.112548828125 L 2.80224609375 1.112548828125 L 2.80224609375 1.261962890625 L 2.331298828125 1.261962890625 L 2.331298828125 0.010986328125 M 2.939208984375 0.010986328125 L 3.14501953125 0.010986328125 Q 3.18017578125 0.010986328125 3.2222900390625 0.013916015625 Q 3.264404296875 0.016845703125 3.3065185546875 0.0281982421875 Q 3.3486328125 0.03955078125 3.3878173828125 0.062255859375 Q 3.427001953125 0.0849609375 3.4573974609375 0.12451171875 Q 3.48779296875 0.1640625 3.506103515625 0.2237548828125 Q 3.5244140625 0.283447265625 3.5244140625 0.368408203125 L 3.5244140625 0.39990234375 Q 3.5244140625 0.542724609375 3.4833984375 0.6324462890625 Q 3.4423828125 0.72216796875 3.362548828125 0.76171875 L 3.563232421875 1.261962890625 L 3.362548828125 1.261962890625 L 3.1962890625 0.7939453125 L 3.125244140625 0.7939453125 L 3.125244140625 1.261962890625 L 2.939208984375 1.261962890625 L 2.939208984375 0.010986328125 M 3.15380859375 0.656982421875 Q 3.20361328125 0.656982421875 3.238037109375 0.64599609375 Q 3.2724609375 0.635009765625 3.293701171875 0.6090087890625 Q 3.31494140625 0.5830078125 3.324462890625 0.5401611328125 Q 3.333984375 0.497314453125 3.333984375 0.434326171875 L 3.333984375 0.33544921875 Q 3.333984375 0.287109375 3.3251953125 0.251953125 Q 3.31640625 0.216796875 3.2955322265625 0.194091796875 Q 3.274658203125 0.17138671875 3.240234375 0.160400390625 Q 3.205810546875 0.1494140625 3.15380859375 0.1494140625 L 3.125244140625 0.1494140625 L 3.125244140625 0.656982421875 L 3.15380859375 0.656982421875 M 3.844482421875 0.010986328125 L 4.062744140625 0.010986328125 L 4.294189453125 1.261962890625 L 4.102294921875 1.261962890625 L 4.06787109375 1.037841796875 L 3.83935546875 1.037841796875 L 3.806396484375 1.261962890625 L 3.61376953125 1.261962890625 L 3.844482421875 0.010986328125 M 4.0458984375 0.89501953125 L 3.9580078125 0.271728515625 L 3.949951171875 0.271728515625 L 3.861328125 0.89501953125 L 4.0458984375 0.89501953125"
                  fill="#343432" fill-rule="nonzero"></path>
        </g>
        <g>
            <path d=" M 0.23803710937499997 2.026736505681818 Q 0.23803710937499997 2.015750177556818 0.24353027343749997 2.009591175426136 Q 0.24902343749999997 2.003432173295454 0.25618119673295453 2.003432173295454 Q 0.26333895596590906 2.003432173295454 0.26883212002840906 2.0085924183238633 Q 0.27432528409090906 2.0137526633522724 0.27365944602272724 2.0244060724431816 Q 0.2703302556818182 2.091655717329545 0.23737127130681818 2.132604758522727 Q 0.2057439630681818 2.171889204545454 0.1581365411931818 2.171889204545454 Q 0.06824840198863635 2.171889204545454 0.041947798295454544 2.037389914772727 Q 0.03196022727272727 1.9877849786931814 0.03196022727272727 1.9203688742897724 Q 0.03196022727272727 1.8529527698863633 0.040283203125 1.800185102982954 Q 0.04860617897727272 1.7474174360795451 0.06558504971590909 1.7084659090909087 Q 0.10187322443181818 1.6252361505681816 0.16878995028409088 1.6252361505681816 Q 0.2207253196022727 1.6252361505681816 0.24569424715909088 1.6661851917613633 Q 0.2719948508522727 1.7097975852272724 0.2719948508522727 1.8086745383522724 Q 0.2719948508522727 1.8196608664772724 0.26700106534090906 1.8251540305397724 Q 0.2620072798295454 1.8306471946022724 0.25501598011363635 1.8306471946022724 Q 0.23970170454545453 1.8306471946022724 0.23970170454545453 1.8113378906249997 Q 0.23970170454545453 1.6881578480113633 0.20041725852272727 1.6645205965909087 Q 0.1864346590909091 1.6561976207386362 0.16779119318181818 1.6561976207386362 Q 0.14914772727272727 1.6561976207386362 0.1343328302556818 1.6666845703124997 Q 0.11951793323863635 1.6771715198863633 0.10803222656249999 1.6956485262784087 Q 0.09654651988636363 1.714125532670454 0.0882235440340909 1.7392609197443178 Q 0.07990056818181818 1.7643963068181816 0.07457386363636363 1.7933602627840906 Q 0.06392045454545454 1.8519540127840906 0.06392045454545454 1.9090496271306814 Q 0.06392045454545454 1.9661452414772724 0.06758256392045454 2.0006023615056816 Q 0.07124467329545454 2.0350594815340903 0.07790305397727272 2.0595290305397724 Q 0.0845614346590909 2.083998579545454 0.0937167080965909 2.0994793146306816 Q 0.1028719815340909 2.1149600497159087 0.1138583096590909 2.1239488636363633 Q 0.1325017755681818 2.139596058238636 0.16146573153409088 2.139596058238636 Q 0.1937588778409091 2.139596058238636 0.21439985795454544 2.113295454545454 Q 0.2387029474431818 2.0829998224431816 0.23803710937499997 2.026736505681818 M 0.46292391690340906 1.6245703124999995 Q 0.4709139737215909 1.6245703124999995 0.47757235440340906 1.6312286931818178 Q 0.48423073508522724 1.6378870738636362 0.4880593039772727 1.6590274325284087 Q 0.4918878728693181 1.6801677911931816 0.4997114701704545 1.7194522372159087 Q 0.5075350674715908 1.758736683238636 0.5171897194602273 1.8033478338068178 Q 0.5268443714488635 1.8479589843749997 0.5374977805397727 1.895399946732954 Q 0.5481511896306818 1.9428409090909087 0.5588045987215908 1.9874520596590906 Q 0.5844393643465908 2.091988636363636 0.5987548828125 2.140261896306818 Q 0.6020840731534091 2.1525799005681816 0.596923828125 2.1599041193181816 Q 0.5917635830965908 2.1672283380681816 0.5854381214488635 2.1672283380681816 Q 0.5791126598011362 2.1672283380681816 0.5739524147727273 2.1635662286931816 Q 0.5687921697443181 2.1599041193181816 0.5647971413352273 2.1419264914772724 Q 0.5608021129261362 2.1239488636363633 0.5518132990056818 2.0836656605113633 Q 0.5428244850852273 2.0433824573863633 0.5325039950284091 1.997106711647727 Q 0.5321710759943181 1.9951091974431814 0.5318381569602273 1.993444602272727 Q 0.5091996626420454 1.992445845170454 0.4679177024147727 1.992445845170454 Q 0.4193115234375 1.992445845170454 0.3936767578125 1.9937775213068178 Q 0.39334383877840906 1.9957750355113633 0.3930109197443181 1.9977725497159087 Q 0.3727028586647727 2.095650745738636 0.36304820667613635 2.1492507102272724 Q 0.35971901633522724 2.1662295809659087 0.3454034978693182 2.1662295809659087 Q 0.33042214133522724 2.1662295809659087 0.3270929509943182 2.1515811434659087 Q 0.3260941938920454 2.147253196022727 0.3290904651988636 2.1379314630681816 Q 0.33208673650568177 2.128609730113636 0.3379128196022727 2.1058047762784087 Q 0.3437389026988636 2.0829998224431816 0.35056374289772724 2.053536487926136 Q 0.3573885830965909 2.0240731534090903 0.36504572088068177 1.9891166548295451 Q 0.3727028586647727 1.9541601562499997 0.38069291548295453 1.9172061434659087 Q 0.38868297230113635 1.8802521306818178 0.3966730291193181 1.8427987393465906 Q 0.4046630859375 1.8053453480113633 0.4119873046875 1.7703888494318178 Q 0.4193115234375 1.7354323508522724 0.4258034446022727 1.7048037997159087 Q 0.4322953657670454 1.6741752485795451 0.43629039417613635 1.6561976207386362 Q 0.4426158558238636 1.6245703124999995 0.46292391690340906 1.6245703124999995 M 0.40000221946022724 1.9628160511363633 Q 0.42530406605113635 1.964147727272727 0.4682506214488636 1.964147727272727 Q 0.5038729580965908 1.964147727272727 0.5251797762784091 1.963148970170454 Q 0.5181884765625 1.9328533380681814 0.5111971768465908 1.900893110795454 Q 0.5002108487215908 1.8512881747159087 0.4902232776988636 1.8046795099431816 Q 0.4735773259943181 1.7284410511363633 0.4615922407670454 1.670846058238636 Q 0.4539351029829545 1.7091317471590906 0.4396195845170454 1.7750497159090906 Q 0.42097611860795453 1.8629403409090906 0.4113214666193181 1.908883167613636 Q 0.4056618430397727 1.9365154474431814 0.40000221946022724 1.9628160511363633 M 0.7107821377840908 2.0174147727272724 Q 0.7134454900568181 2.0976482599431816 0.7147771661931818 2.1409277343749995 Q 0.7151100852272727 2.1522469815340903 0.7092840021306818 2.1577401455965903 Q 0.7034579190340908 2.1632333096590903 0.6966330788352272 2.1632333096590903 Q 0.6898082386363635 2.1632333096590903 0.6844815340909091 2.1580730646306816 Q 0.6791548295454545 2.1529128196022724 0.6791548295454545 2.1415935724431816 L 0.6791548295454545 2.066353870738636 L 0.6788219105113635 1.963148970170454 L 0.6788219105113635 1.8705974786931814 Q 0.6788219105113635 1.780043501420454 0.6773237748579545 1.755407492897727 Q 0.6758256392045454 1.7307714843749997 0.6751598011363635 1.7181205610795451 Q 0.6744939630681818 1.7054696377840906 0.6734952059659091 1.6923193359374997 Q 0.6724964488636364 1.6791690340909087 0.6716641512784091 1.666518110795454 Q 0.6708318536931818 1.6538671874999995 0.6733287464488635 1.649206321022727 Q 0.6758256392045454 1.644545454545454 0.6794877485795454 1.6423814808238633 Q 0.6831498579545454 1.6402175071022724 0.6871448863636364 1.6395516690340906 Q 0.6911399147727272 1.6388858309659087 0.7041237571022727 1.6355566406249995 Q 0.7450727982954545 1.6255690696022724 0.7767001065340908 1.6255690696022724 Q 0.8083274147727272 1.6255690696022724 0.8303000710227272 1.633559126420454 Q 0.8522727272727272 1.6415491832386362 0.867919921875 1.6578622159090906 Q 0.9012118252840908 1.692152876420454 0.9012118252840908 1.7557404119318178 Q 0.9012118252840908 1.842299360795454 0.8406205610795454 1.9145427911931814 Q 0.7916814630681818 1.9728036221590906 0.7107821377840908 2.0174147727272724 M 0.7097833806818181 1.985787464488636 Q 0.8705832741477272 1.8985626775568178 0.8705832741477272 1.758736683238636 Q 0.8705832741477272 1.681832386363636 0.8173162286931818 1.6598597301136362 Q 0.7776988636363635 1.6435466974431816 0.7211026278409091 1.662856001420454 Q 0.7144442471590908 1.6651864346590906 0.7084517045454545 1.667516867897727 Q 0.7061212713068181 1.725777698863636 0.7061212713068181 1.787367720170454 L 0.7061212713068181 1.8879092684659087 Q 0.7061212713068181 1.894234730113636 0.7064541903409091 1.9002272727272724 Q 0.706787109375 1.9062198153409087 0.7069535688920454 1.9130446555397724 Q 0.7071200284090908 1.919869495738636 0.7076194069602272 1.9306893643465906 Q 0.7081187855113635 1.9415092329545451 0.7087846235795454 1.9578222656249997 Q 0.7091175426136364 1.9694744318181814 0.7097833806818181 1.985787464488636 M 1.0162353515625 1.6259019886363633 Q 1.0255570845170454 1.6259019886363633 1.136086203835227 1.6232386363636362 Q 1.151400479403409 1.6232386363636362 1.1570601029829546 1.6348908025568178 Q 1.1583917791193181 1.638219992897727 1.1583917791193181 1.6425479403409087 Q 1.1583917791193181 1.6468758877840906 1.1533979936079546 1.6513702947443178 Q 1.1484042080965908 1.6558647017045451 1.1347545276988635 1.655531782670454 Q 1.1211048473011362 1.6551988636363633 1.1082874644886362 1.6545330255681816 Q 1.0954700816761362 1.6538671874999995 1.0844837535511362 1.6535342684659087 Q 1.0648415305397727 1.652868430397727 1.0508589311079546 1.6532013494318178 Q 1.0481955788352273 1.729772727272727 1.0481955788352273 1.8193279474431816 Q 1.0481955788352273 1.9152086292613633 1.0483620383522727 1.9506645063920451 Q 1.0485284978693181 1.986120383522727 1.0491943359375 2.018413529829545 Q 1.0501930930397727 2.1009774502840903 1.0511918501420454 2.1409277343749995 Q 1.0515247691761362 2.1522469815340903 1.0460316051136362 2.1577401455965903 Q 1.0405384410511362 2.1632333096590903 1.0340465198863635 2.1632333096590903 Q 1.0275545987215908 2.1632333096590903 1.021395596590909 2.1580730646306816 Q 1.0152365944602273 2.1529128196022724 1.0152365944602273 2.142592329545454 L 1.0149036754261362 2.098979936079545 L 1.0182328657670454 1.781042258522727 Q 1.0182328657670454 1.692152876420454 1.015902432528409 1.6532013494318178 Q 0.9982577237215908 1.652868430397727 0.9739546342329545 1.6545330255681816 Q 0.9453235973011362 1.656530539772727 0.9325062144886364 1.657362837357954 Q 0.9196888316761364 1.6581951349431816 0.9143621271306818 1.6532013494318178 Q 0.9090354225852272 1.648207563920454 0.9090354225852272 1.6417156427556816 Q 0.9090354225852272 1.6352237215909087 0.9143621271306818 1.6288982599431816 Q 0.9196888316761364 1.622572798295454 0.9315074573863635 1.6230721768465906 Q 0.9433260830965908 1.623571555397727 0.9519819779829545 1.6239044744318178 Q 0.9606378728693181 1.6242373934659087 0.9671297940340908 1.6245703124999995 Q 0.9736217151988635 1.6249032315340906 0.9786155007102272 1.6252361505681816 Q 0.9836092862215908 1.6255690696022724 0.9887695312499999 1.6257355291193178 Q 0.9939297762784091 1.6259019886363633 1.0005881569602273 1.6259019886363633 L 1.0162353515625 1.6259019886363633 M 1.2164861505681819 1.9917800071022724 L 1.2171519886363638 1.8509552556818178 Q 1.2171519886363638 1.7311044034090906 1.2094948508522727 1.6478746448863633 Q 1.20849609375 1.637221235795454 1.2148215553977273 1.6320609907670451 Q 1.2211470170454546 1.6269007457386362 1.2293035333806819 1.6269007457386362 Q 1.2374600497159092 1.6269007457386362 1.2441184303977273 1.6320609907670451 Q 1.2507768110795454 1.637221235795454 1.2501109730113638 1.654699485085227 Q 1.2494451349431819 1.6721777343749997 1.2486128373579546 1.6989777166193178 Q 1.2477805397727273 1.725777698863636 1.2471147017045454 1.7557404119318178 Q 1.2457830255681819 1.8156658380681816 1.2457830255681819 1.864272017045454 Q 1.2457830255681819 1.912878196022727 1.2459494850852273 1.9306893643465906 Q 1.2461159446022727 1.948500532670454 1.2464488636363638 1.9651464843749997 Q 1.2481134588068181 2.0537029474431816 1.2564364346590908 2.077340198863636 Q 1.2647594105113638 2.1009774502840903 1.2757457386363638 2.113628373579545 Q 1.2977183948863638 2.138930220170454 1.3323419744318181 2.138930220170454 Q 1.3679643110795454 2.138930220170454 1.3912686434659092 2.1126296164772724 Q 1.4152388139204546 2.085330255681818 1.4192338423295454 2.036391157670454 Q 1.4228959517045454 1.9764657315340906 1.4228959517045454 1.9401775568181814 Q 1.4228959517045454 1.9038893821022724 1.4227294921875 1.8774223188920451 Q 1.4225630326704546 1.8509552556818178 1.4218971946022727 1.8179962713068178 Q 1.4192338423295454 1.722115589488636 1.4165704900568181 1.6458771306818178 Q 1.4162375710227273 1.6352237215909087 1.4222301136363638 1.6302299360795451 Q 1.42822265625 1.6252361505681816 1.4358797940340908 1.6252361505681816 Q 1.4435369318181819 1.6252361505681816 1.4498623934659092 1.6302299360795451 Q 1.4561878551136365 1.6352237215909087 1.4558549360795454 1.6458771306818178 Q 1.4545232599431819 1.6954820667613633 1.4543568004261365 1.7437553267045451 Q 1.4541903409090908 1.792028586647727 1.453857421875 1.839636008522727 Q 1.4531915838068181 1.9551589133522724 1.4495294744318181 2.005596147017045 Q 1.4458673650568181 2.056033380681818 1.4383766867897727 2.081668146306818 Q 1.4308860085227273 2.107302911931818 1.4169034090909092 2.1272780539772724 Q 1.3856090198863638 2.171889204545454 1.3326748934659092 2.171889204545454 Q 1.2451171875 2.171889204545454 1.2234774502840908 2.0750097656249995 Q 1.2164861505681819 2.044714133522727 1.2164861505681819 2.007427201704545 L 1.2164861505681819 1.9917800071022724 M 1.5951815518465908 2.0097576349431816 Q 1.5978449041193181 2.085330255681818 1.5995094992897727 2.1409277343749995 Q 1.5998424183238635 2.1522469815340903 1.5938498757102273 2.1577401455965903 Q 1.5878573330965908 2.1632333096590903 1.5810324928977273 2.1632333096590903 Q 1.5742076526988635 2.1632333096590903 1.5690474076704546 2.1580730646306816 Q 1.5638871626420454 2.1529128196022724 1.5638871626420454 2.142592329545454 L 1.5638871626420454 1.8922372159090906 Q 1.5638871626420454 1.762398792613636 1.5575617009943181 1.659193892045454 Q 1.5565629438920454 1.644545454545454 1.5655517578125 1.6388858309659087 Q 1.5692138671875 1.6365553977272724 1.5732088955965908 1.6360560191761362 Q 1.5772039240056819 1.6355566406249995 1.5908536044034092 1.6315616122159087 Q 1.6251442649147727 1.6219069602272724 1.658935546875 1.6219069602272724 Q 1.6927268288352273 1.6219069602272724 1.7148659446022727 1.6293976384943178 Q 1.7370050603693181 1.6368883167613633 1.7526522549715908 1.6522025923295451 Q 1.7859441583806819 1.684828657670454 1.7859441583806819 1.7484161931818178 Q 1.7859441583806819 1.8303142755681816 1.7213578657670454 1.9065527343749997 Q 1.7110373757102273 1.9188707386363633 1.6993852095170454 1.930855823863636 Q 1.7320112748579546 2.0307315340909087 1.7759565873579546 2.1346022727272724 Q 1.7839466441761362 2.1525799005681816 1.7679665305397727 2.160902876420454 Q 1.7639715021306819 2.1629003906249995 1.7586447975852273 2.1629003906249995 Q 1.7466597123579546 2.1629003906249995 1.7416659268465908 2.1492507102272724 Q 1.7310125177556819 2.118289240056818 1.7223566228693181 2.089824662642045 Q 1.7137007279829546 2.0613600852272724 1.7053777521306819 2.0343936434659087 Q 1.6907293146306819 1.985787464488636 1.6777454723011362 1.9511638849431814 Q 1.6411243785511362 1.9834570312499997 1.5951815518465908 2.0097576349431816 M 1.5941827947443181 1.9781303267045451 Q 1.6467840021306819 1.9475017755681814 1.6927268288352273 1.8949005681818178 Q 1.7543168501420454 1.8233229758522724 1.7543168501420454 1.751412464488636 Q 1.7543168501420454 1.6768386008522724 1.7020485617897727 1.6551988636363633 Q 1.6734175248579546 1.6432137784090906 1.6291392933238635 1.651869673295454 Q 1.6081653941761362 1.6558647017045451 1.5948486328125 1.6625230823863633 Q 1.5905206853693181 1.762731711647727 1.5905206853693181 1.8306471946022724 Q 1.5905206853693181 1.9028906249999997 1.5906871448863635 1.9083837890624997 Q 1.5908536044034092 1.9138769531249997 1.5910200639204546 1.918371360085227 Q 1.5911865234375 1.922865767045454 1.5915194424715908 1.9276930930397724 Q 1.5918523615056819 1.9325204190340906 1.5923517400568181 1.9415092329545451 Q 1.5928511186079546 1.9504980468749997 1.5935169566761362 1.9648135653409087 Q 1.5938498757102273 1.9708061079545451 1.5941827947443181 1.9781303267045451 M 1.8983043323863638 1.981459517045454 L 1.8989701704545454 2.099645774147727 Q 1.8989701704545454 2.1156258877840903 1.8989701704545454 2.1269451349431816 Q 1.8993030894886365 2.131938920454545 1.8993030894886365 2.135601029829545 Q 1.9831986860795454 2.135601029829545 2.010830965909091 2.132937677556818 Q 2.039462002840909 2.1299414062499995 2.0441228693181817 2.1312730823863633 Q 2.0487837357954546 2.132604758522727 2.0521129261363638 2.135601029829545 Q 2.0587713068181817 2.1415935724431816 2.0587713068181817 2.148751331676136 Q 2.0587713068181817 2.1559090909090903 2.0524458451704546 2.1610693359374995 Q 2.0461203835227275 2.1662295809659087 2.0348011363636362 2.165563742897727 Q 1.9802024147727273 2.161235795454545 1.9362571022727273 2.164065607244318 Q 1.8923117897727273 2.1668954190340903 1.8869850852272727 2.167727716619318 Q 1.8816583806818183 2.168560014204545 1.8774968927556819 2.167727716619318 Q 1.8733354048295456 2.1668954190340903 1.8700062144886365 2.1642320667613633 Q 1.8623490767045456 2.158572443181818 1.8630149147727273 2.147586115056818 Q 1.868008700284091 2.051372514204545 1.868008700284091 1.9346843927556814 Q 1.868008700284091 1.8179962713068178 1.8681751598011365 1.7878670987215906 Q 1.8683416193181819 1.7577379261363633 1.8683416193181819 1.7327689985795451 Q 1.86767578125 1.6791690340909087 1.8660111860795456 1.6570299183238633 Q 1.864346590909091 1.6348908025568178 1.8668434836647727 1.6305628551136362 Q 1.8693403764204546 1.626234907670454 1.8730024857954546 1.6242373934659087 Q 1.8779962713068183 1.6219069602272724 1.8856534090909092 1.6232386363636362 Q 1.8996360085227273 1.6255690696022724 1.922607421875 1.6255690696022724 Q 1.966885653409091 1.6255690696022724 1.9830322265625 1.6237380149147724 Q 1.9991787997159092 1.6219069602272724 2.0038396661931817 1.6234050958806816 Q 2.0085005326704546 1.6249032315340906 2.011496803977273 1.6275665838068178 Q 2.018155184659091 1.6328932883522724 2.018155184659091 1.6405504261363633 Q 2.018155184659091 1.648207563920454 2.0121626420454546 1.6532013494318178 Q 2.0061700994318183 1.6581951349431816 1.995849609375 1.6576957563920451 Q 1.9855291193181819 1.6571963778409087 1.973876953125 1.6563640802556816 Q 1.9622247869318183 1.655531782670454 1.9489080255681819 1.6548659446022724 Q 1.9209428267045454 1.6538671874999995 1.9003018465909092 1.655531782670454 Q 1.9003018465909092 1.6844957386363633 1.8999689275568183 1.7131267755681816 Q 1.8996360085227273 1.747084517045454 1.8993030894886365 1.7820410156249997 Q 1.8983043323863638 1.875924183238636 1.8983043323863638 1.9205353338068178 Q 1.9399192116477273 1.9205353338068178 1.959561434659091 1.9185378196022724 Q 1.9808682528409092 1.916207386363636 1.9863614169034092 1.9205353338068178 Q 1.9918545809659092 1.9248632812499997 1.9918545809659092 1.9321874999999997 Q 1.9918545809659092 1.9504980468749997 1.9575639204545454 1.9498322088068178 Q 1.9505726207386365 1.949499289772727 1.944912997159091 1.949499289772727 L 1.9179465553977273 1.949166370738636 L 1.8983043323863638 1.949166370738636 L 1.8983043323863638 1.981459517045454 M 2.2735040838068183 1.981459517045454 L 2.274169921875 2.099645774147727 Q 2.274169921875 2.1156258877840903 2.274169921875 2.1269451349431816 Q 2.274502840909091 2.131938920454545 2.274502840909091 2.135601029829545 Q 2.3583984375 2.135601029829545 2.3860307173295454 2.132937677556818 Q 2.4146617542613638 2.1299414062499995 2.4193226207386367 2.1312730823863633 Q 2.423983487215909 2.132604758522727 2.4273126775568183 2.135601029829545 Q 2.4339710582386367 2.1415935724431816 2.4339710582386367 2.148751331676136 Q 2.4339710582386367 2.1559090909090903 2.427645596590909 2.1610693359374995 Q 2.421320134943182 2.1662295809659087 2.410000887784091 2.165563742897727 Q 2.355402166193182 2.161235795454545 2.311456853693182 2.164065607244318 Q 2.267511541193182 2.1668954190340903 2.2621848366477275 2.167727716619318 Q 2.256858132102273 2.168560014204545 2.2526966441761367 2.167727716619318 Q 2.24853515625 2.1668954190340903 2.245205965909091 2.1642320667613633 Q 2.237548828125 2.158572443181818 2.238214666193182 2.147586115056818 Q 2.2432084517045454 2.051372514204545 2.2432084517045454 1.9346843927556814 Q 2.2432084517045454 1.8179962713068178 2.243374911221591 1.7878670987215906 Q 2.2435413707386367 1.7577379261363633 2.2435413707386367 1.7327689985795451 Q 2.2428755326704546 1.6791690340909087 2.2412109375 1.6570299183238633 Q 2.2395463423295454 1.6348908025568178 2.2420432350852275 1.6305628551136362 Q 2.244540127840909 1.626234907670454 2.248202237215909 1.6242373934659087 Q 2.253196022727273 1.6219069602272724 2.2608531605113638 1.6232386363636362 Q 2.274835759943182 1.6255690696022724 2.2978071732954546 1.6255690696022724 Q 2.3420854048295454 1.6255690696022724 2.3582319779829546 1.6237380149147724 Q 2.3743785511363638 1.6219069602272724 2.3790394176136367 1.6234050958806816 Q 2.383700284090909 1.6249032315340906 2.3866965553977275 1.6275665838068178 Q 2.3933549360795454 1.6328932883522724 2.3933549360795454 1.6405504261363633 Q 2.3933549360795454 1.648207563920454 2.387362393465909 1.6532013494318178 Q 2.381369850852273 1.6581951349431816 2.3710493607954546 1.6576957563920451 Q 2.3607288707386367 1.6571963778409087 2.3490767045454546 1.6563640802556816 Q 2.337424538352273 1.655531782670454 2.3241077769886367 1.6548659446022724 Q 2.296142578125 1.6538671874999995 2.2755015980113638 1.655531782670454 Q 2.2755015980113638 1.6844957386363633 2.275168678977273 1.7131267755681816 Q 2.274835759943182 1.747084517045454 2.274502840909091 1.7820410156249997 Q 2.2735040838068183 1.875924183238636 2.2735040838068183 1.9205353338068178 Q 2.315118963068182 1.9205353338068178 2.3347611860795454 1.9185378196022724 Q 2.3560680042613638 1.916207386363636 2.3615611683238638 1.9205353338068178 Q 2.3670543323863638 1.9248632812499997 2.3670543323863638 1.9321874999999997 Q 2.3670543323863638 1.9504980468749997 2.332763671875 1.9498322088068178 Q 2.325772372159091 1.949499289772727 2.3201127485795454 1.949499289772727 L 2.293146306818182 1.949166370738636 L 2.2735040838068183 1.949166370738636 L 2.2735040838068183 1.981459517045454 M 2.7302689985795454 1.6297305575284087 Q 2.736428000710227 1.6365553977272724 2.7325994318181817 1.6495392400568178 Q 2.7287708629261362 1.6625230823863633 2.723610617897727 1.684828657670454 Q 2.718450372869318 1.7071342329545451 2.712124911221591 1.7355988103693178 Q 2.7057994495738633 1.7640633877840906 2.6984752308238633 1.797521750710227 Q 2.6911510120738633 1.8309801136363633 2.683327414772727 1.8669353693181814 Q 2.675503817471591 1.9028906249999997 2.6673473011363633 1.940344016335227 Q 2.6591907848011362 1.977797407670454 2.6508678089488633 2.0140855823863633 Q 2.6322243430397725 2.095317826704545 2.6185746626420454 2.147586115056818 Q 2.6142467151988633 2.165230823863636 2.597267844460227 2.165230823863636 Q 2.579290216619318 2.165230823863636 2.5736305930397725 2.147586115056818 Q 2.5689697265625 2.132604758522727 2.5538219105113638 2.060194868607954 Q 2.538674094460227 1.9877849786931814 2.530517578125 1.950331587357954 Q 2.5223610617897725 1.912878196022727 2.5135387073863638 1.8730943714488633 Q 2.5047163529829546 1.8333105468749997 2.495394620028409 1.7940261008522724 Q 2.4760853160511362 1.7131267755681816 2.4659312855113638 1.679335493607954 Q 2.455777254971591 1.645544211647727 2.455777254971591 1.6383864524147724 Q 2.455777254971591 1.6312286931818178 2.460604580965909 1.6265678267045451 Q 2.465431906960227 1.6219069602272724 2.4729225852272725 1.6215740411931816 Q 2.480413263494318 1.6212411221590906 2.4879039417613638 1.6265678267045451 Q 2.495394620028409 1.6318945312499995 2.4985573508522725 1.649206321022727 Q 2.5017200816761362 1.666518110795454 2.5072132457386362 1.6948162286931816 Q 2.5127064098011362 1.7231143465909087 2.5193647904829546 1.7559068714488633 Q 2.5260231711647725 1.7886993963068178 2.533513849431818 1.8244881924715906 Q 2.5410045276988638 1.8602769886363633 2.5486616654829546 1.896065784801136 Q 2.5563188032670454 1.9318545809659087 2.5639759410511362 1.9663117009943178 Q 2.571633078835227 2.000768821022727 2.578957297585227 2.0310644531249995 Q 2.590276544744318 2.0800035511363633 2.5989324396306817 2.110965021306818 Q 2.6069224964488633 2.088659446022727 2.615578391335227 2.0497079190340903 Q 2.627896395596591 1.993444602272727 2.6328901811079546 1.9691415127840906 Q 2.638882723721591 1.9408433948863633 2.6475386186079546 1.8937353515624997 Q 2.656194513494318 1.846627308238636 2.6625199751420454 1.8145006214488633 Q 2.6688454367897725 1.7823739346590906 2.674505060369318 1.7542422762784087 Q 2.6801646839488633 1.726110617897727 2.6853249289772725 1.7009752308238633 Q 2.6904851740056817 1.6758398437499997 2.6933149857954546 1.6576957563920451 Q 2.696144797585227 1.6395516690340906 2.7009721235795454 1.6312286931818178 Q 2.7057994495738633 1.6229057173295451 2.7149547230113633 1.6229057173295451 Q 2.7241099964488633 1.6229057173295451 2.7302689985795454 1.6297305575284087 M 2.835471413352273 1.981459517045454 L 2.8361372514204546 2.099645774147727 Q 2.8361372514204546 2.1156258877840903 2.8361372514204546 2.1269451349431816 Q 2.8364701704545454 2.131938920454545 2.8364701704545454 2.135601029829545 Q 2.9203657670454546 2.135601029829545 2.947998046875 2.132937677556818 Q 2.9766290838068183 2.1299414062499995 2.981289950284091 2.1312730823863633 Q 2.9859508167613638 2.132604758522727 2.989280007102273 2.135601029829545 Q 2.995938387784091 2.1415935724431816 2.995938387784091 2.148751331676136 Q 2.995938387784091 2.1559090909090903 2.9896129261363638 2.1610693359374995 Q 2.9832874644886367 2.1662295809659087 2.9719682173295454 2.165563742897727 Q 2.9173694957386367 2.161235795454545 2.8734241832386367 2.164065607244318 Q 2.8294788707386367 2.1668954190340903 2.824152166193182 2.167727716619318 Q 2.8188254616477275 2.168560014204545 2.8146639737215913 2.167727716619318 Q 2.8105024857954546 2.1668954190340903 2.8071732954545454 2.1642320667613633 Q 2.7995161576704546 2.158572443181818 2.8001819957386367 2.147586115056818 Q 2.80517578125 2.051372514204545 2.80517578125 1.9346843927556814 Q 2.80517578125 1.8179962713068178 2.8053422407670454 1.7878670987215906 Q 2.8055087002840913 1.7577379261363633 2.8055087002840913 1.7327689985795451 Q 2.804842862215909 1.6791690340909087 2.8031782670454546 1.6570299183238633 Q 2.801513671875 1.6348908025568178 2.804010564630682 1.6305628551136362 Q 2.8065074573863638 1.626234907670454 2.8101695667613638 1.6242373934659087 Q 2.8151633522727275 1.6219069602272724 2.8228204900568183 1.6232386363636362 Q 2.8368030894886367 1.6255690696022724 2.859774502840909 1.6255690696022724 Q 2.904052734375 1.6255690696022724 2.920199307528409 1.6237380149147724 Q 2.9363458806818183 1.6219069602272724 2.941006747159091 1.6234050958806816 Q 2.9456676136363638 1.6249032315340906 2.948663884943182 1.6275665838068178 Q 2.955322265625 1.6328932883522724 2.955322265625 1.6405504261363633 Q 2.955322265625 1.648207563920454 2.9493297230113638 1.6532013494318178 Q 2.9433371803977275 1.6581951349431816 2.933016690340909 1.6576957563920451 Q 2.922696200284091 1.6571963778409087 2.911044034090909 1.6563640802556816 Q 2.8993918678977275 1.655531782670454 2.886075106534091 1.6548659446022724 Q 2.8581099076704546 1.6538671874999995 2.8374689275568183 1.655531782670454 Q 2.8374689275568183 1.6844957386363633 2.8371360085227275 1.7131267755681816 Q 2.8368030894886367 1.747084517045454 2.8364701704545454 1.7820410156249997 Q 2.835471413352273 1.875924183238636 2.835471413352273 1.9205353338068178 Q 2.8770862926136367 1.9205353338068178 2.896728515625 1.9185378196022724 Q 2.9180353338068183 1.916207386363636 2.9235284978693183 1.9205353338068178 Q 2.9290216619318183 1.9248632812499997 2.9290216619318183 1.9321874999999997 Q 2.9290216619318183 1.9504980468749997 2.8947310014204546 1.9498322088068178 Q 2.8877397017045454 1.949499289772727 2.882080078125 1.949499289772727 L 2.8551136363636367 1.949166370738636 L 2.835471413352273 1.949166370738636 L 2.835471413352273 1.981459517045454 M 3.0913196910511367 2.0097576349431816 Q 3.093983043323864 2.085330255681818 3.095647638494319 2.1409277343749995 Q 3.0959805575284096 2.1522469815340903 3.089988014914773 2.1577401455965903 Q 3.0839954723011367 2.1632333096590903 3.077170632102273 2.1632333096590903 Q 3.0703457919034096 2.1632333096590903 3.0651855468750004 2.1580730646306816 Q 3.0600253018465913 2.1529128196022724 3.0600253018465913 2.142592329545454 L 3.0600253018465913 1.8922372159090906 Q 3.0600253018465913 1.762398792613636 3.053699840198864 1.659193892045454 Q 3.0527010830965913 1.644545454545454 3.061689897017046 1.6388858309659087 Q 3.065352006392046 1.6365553977272724 3.0693470348011367 1.6360560191761362 Q 3.0733420632102275 1.6355566406249995 3.086991743607955 1.6315616122159087 Q 3.121282404119319 1.6219069602272724 3.155073686079546 1.6219069602272724 Q 3.188864968039773 1.6219069602272724 3.2110040838068183 1.6293976384943178 Q 3.233143199573864 1.6368883167613633 3.2487903941761367 1.6522025923295451 Q 3.2820822975852275 1.684828657670454 3.2820822975852275 1.7484161931818178 Q 3.2820822975852275 1.8303142755681816 3.2174960049715913 1.9065527343749997 Q 3.207175514914773 1.9188707386363633 3.1955233487215913 1.930855823863636 Q 3.2281494140625004 2.0307315340909087 3.2720947265625004 2.1346022727272724 Q 3.280084783380682 2.1525799005681816 3.2641046697443183 2.160902876420454 Q 3.2601096413352275 2.1629003906249995 3.254782936789773 2.1629003906249995 Q 3.2427978515625004 2.1629003906249995 3.2378040660511367 2.1492507102272724 Q 3.2271506569602275 2.118289240056818 3.218494762073864 2.089824662642045 Q 3.2098388671875004 2.0613600852272724 3.2015158913352275 2.0343936434659087 Q 3.1868674538352275 1.985787464488636 3.173883611505682 1.9511638849431814 Q 3.137262517755682 1.9834570312499997 3.0913196910511367 2.0097576349431816 M 3.090320933948864 1.9781303267045451 Q 3.1429221413352275 1.9475017755681814 3.188864968039773 1.8949005681818178 Q 3.2504549893465913 1.8233229758522724 3.2504549893465913 1.751412464488636 Q 3.2504549893465913 1.6768386008522724 3.1981867009943183 1.6551988636363633 Q 3.1695556640625004 1.6432137784090906 3.1252774325284096 1.651869673295454 Q 3.104303533380682 1.6558647017045451 3.090986772017046 1.6625230823863633 Q 3.086658824573864 1.762731711647727 3.086658824573864 1.8306471946022724 Q 3.086658824573864 1.9028906249999997 3.0868252840909096 1.9083837890624997 Q 3.086991743607955 1.9138769531249997 3.0871582031250004 1.918371360085227 Q 3.087324662642046 1.922865767045454 3.0876575816761367 1.9276930930397724 Q 3.0879905007102275 1.9325204190340906 3.088489879261364 1.9415092329545451 Q 3.0889892578125004 1.9504980468749997 3.089655095880682 1.9648135653409087 Q 3.089988014914773 1.9708061079545451 3.090320933948864 1.9781303267045451 M 3.489324396306819 2.0463787286931816 L 3.491654829545455 2.143258167613636 Q 3.491654829545455 2.158239524147727 3.477339311079546 2.1635662286931816 Q 3.473677201704546 2.164897904829545 3.468683416193182 2.164897904829545 Q 3.463689630681819 2.164897904829545 3.4580300071022734 2.159404740767045 Q 3.4523703835227275 2.153911576704545 3.4533691406250004 2.142092950994318 Q 3.4543678977272734 2.1302743252840903 3.4556995738636367 2.1186221590909087 Q 3.4570312500000004 2.106969992897727 3.4580300071022734 2.094984907670454 Q 3.4603604403409096 2.067019708806818 3.4603604403409096 2.051372514204545 Q 3.4603604403409096 2.0357253196022724 3.460027521306819 2.0244060724431816 Q 3.4596946022727275 2.0130868252840903 3.459028764204546 2.001101740056818 Q 3.458695845170455 1.9914470880681814 3.4580300071022734 1.9794620028409087 Q 3.4470436789772734 1.9514968039772724 3.4337269176136367 1.919869495738636 Q 3.4167480468750004 1.8785875355113633 3.3984375000000004 1.8339763849431816 Q 3.323197798295455 1.652868430397727 3.323197798295455 1.6378870738636362 Q 3.323197798295455 1.6295640980113633 3.328191583806819 1.6245703124999995 Q 3.333185369318182 1.6195765269886362 3.341008966619319 1.6192436079545451 Q 3.348832563920455 1.618910688920454 3.3531605113636367 1.624403852982954 Q 3.357488458806819 1.629897017045454 3.3659778941761367 1.659193892045454 Q 3.374467329545455 1.688490767045454 3.3911132812500004 1.7346000532670451 Q 3.407759232954546 1.780709339488636 3.424738103693182 1.8226571377840906 Q 3.4470436789772734 1.8782546164772724 3.4750088778409096 1.9408433948863633 Q 3.4800026633522734 1.927193714488636 3.485662286931819 1.911879438920454 Q 3.495316938920455 1.886910511363636 3.5054709694602275 1.859444691051136 Q 3.5156250000000004 1.831978870738636 3.526111949573864 1.8031813742897724 Q 3.5365988991477275 1.7743838778409087 3.546253551136364 1.7467515980113633 Q 3.5695578835227275 1.6791690340909087 3.575883345170455 1.6566969992897724 Q 3.582208806818182 1.6342249644886362 3.586536754261364 1.6257355291193178 Q 3.590864701704546 1.6172460937499995 3.5995205965909096 1.6172460937499995 Q 3.6155007102272734 1.6172460937499995 3.6155007102272734 1.6328932883522724 Q 3.6155007102272734 1.6448783735795451 3.5916969992897734 1.706801313920454 Q 3.5678932883522734 1.7687242542613633 3.5610684481534096 1.7882000177556816 Q 3.554243607954546 1.8076757812499997 3.547918146306819 1.8248211115056816 Q 3.5415926846590913 1.8419664417613633 3.5342684659090913 1.8614422052556814 Q 3.5269442471590913 1.8809179687499997 3.519120649857955 1.9013924893465906 Q 3.511297052556819 1.9218670099431814 3.5043057528409096 1.9405104758522724 Q 3.4963156960227275 1.960485617897727 3.4909889914772734 1.974135298295454 Q 3.489324396306819 2.033394886363636 3.489324396306819 2.0463787286931816 M 3.8591974431818183 1.6259019886363633 Q 3.8685191761363638 1.6259019886363633 3.979048295454546 1.6232386363636362 Q 3.9943625710227275 1.6232386363636362 4.000022194602273 1.6348908025568178 Q 4.001353870738637 1.638219992897727 4.001353870738637 1.6425479403409087 Q 4.001353870738637 1.6468758877840906 3.996360085227273 1.6513702947443178 Q 3.991366299715909 1.6558647017045451 3.977716619318182 1.655531782670454 Q 3.964066938920455 1.6551988636363633 3.951249556107955 1.6545330255681816 Q 3.938432173295455 1.6538671874999995 3.927445845170455 1.6535342684659087 Q 3.9078036221590913 1.652868430397727 3.893821022727273 1.6532013494318178 Q 3.891157670454546 1.729772727272727 3.891157670454546 1.8193279474431816 Q 3.891157670454546 1.9152086292613633 3.8913241299715913 1.9506645063920451 Q 3.8914905894886367 1.986120383522727 3.8921564275568183 2.018413529829545 Q 3.8931551846590913 2.1009774502840903 3.8941539417613638 2.1409277343749995 Q 3.894486860795455 2.1522469815340903 3.888993696732955 2.1577401455965903 Q 3.883500532670455 2.1632333096590903 3.877008611505682 2.1632333096590903 Q 3.8705166903409096 2.1632333096590903 3.8643576882102275 2.1580730646306816 Q 3.858198686079546 2.1529128196022724 3.858198686079546 2.142592329545454 L 3.857865767045455 2.098979936079545 L 3.8611949573863638 1.781042258522727 Q 3.8611949573863638 1.692152876420454 3.8588645241477275 1.6532013494318178 Q 3.8412198153409096 1.652868430397727 3.816916725852273 1.6545330255681816 Q 3.788285688920455 1.656530539772727 3.775468306107955 1.657362837357954 Q 3.762650923295455 1.6581951349431816 3.7573242187500004 1.6532013494318178 Q 3.751997514204546 1.648207563920454 3.751997514204546 1.6417156427556816 Q 3.751997514204546 1.6352237215909087 3.7573242187500004 1.6288982599431816 Q 3.762650923295455 1.622572798295454 3.774469549005682 1.6230721768465906 Q 3.7862881747159096 1.623571555397727 3.794944069602273 1.6239044744318178 Q 3.8035999644886367 1.6242373934659087 3.8100918856534096 1.6245703124999995 Q 3.816583806818182 1.6249032315340906 3.821577592329546 1.6252361505681816 Q 3.8265713778409096 1.6255690696022724 3.8317316228693183 1.6257355291193178 Q 3.8368918678977275 1.6259019886363633 3.843550248579546 1.6259019886363633 L 3.8591974431818183 1.6259019886363633 M 4.246548739346592 1.7940261008522724 L 4.246215820312501 1.7414248934659087 Q 4.246215820312501 1.728773970170454 4.246049360795455 1.7142919921874997 Q 4.24588290127841 1.6998100142045451 4.245716441761364 1.682997602982954 Q 4.245549982244319 1.6661851917613633 4.2452170632102275 1.6503715376420451 Q 4.244884144176137 1.634557883522727 4.250876686789773 1.6295640980113633 Q 4.25686922940341 1.6245703124999995 4.2635276100852275 1.6245703124999995 Q 4.270185990767046 1.6245703124999995 4.275679154829546 1.6295640980113633 Q 4.281172318892046 1.634557883522727 4.280839399857955 1.6452112926136362 Q 4.275512695312501 1.8299813565340906 4.275512695312501 1.934850852272727 Q 4.275512695312501 2.103640802556818 4.277843128551137 2.143258167613636 Q 4.278508966619318 2.153911576704545 4.273015802556818 2.1592382812499995 Q 4.267522638494318 2.164564985795454 4.261030717329546 2.164564985795454 Q 4.254538796164773 2.164564985795454 4.249378551136364 2.159404740767045 Q 4.244218306107955 2.154244495738636 4.244551225142046 2.143591086647727 Q 4.24588290127841 2.034060724431818 4.246548739346592 1.9554918323863633 Q 4.216918945312501 1.952828480113636 4.165649414062501 1.952828480113636 Q 4.112382368607955 1.952828480113636 4.086747602982955 1.955824751420454 Q 4.087080522017046 2.0563662997159087 4.089078036221592 2.1415935724431816 Q 4.0894109552556825 2.1525799005681816 4.083418412642046 2.158239524147727 Q 4.07742587002841 2.1638991477272724 4.070601029829546 2.1638991477272724 Q 4.0637761896306825 2.1638991477272724 4.0584494850852275 2.1587389026988633 Q 4.053122780539773 2.153578657670454 4.053788618607955 2.135268110795454 Q 4.054454456676137 2.116957563920454 4.055120294744319 2.0826669034090903 Q 4.055786132812501 2.048376242897727 4.0564519708806825 2.0097576349431816 Q 4.057117808948864 1.944838423295454 4.057117808948864 1.8769229403409087 Q 4.057117808948864 1.8090074573863633 4.056951349431819 1.7812087180397724 Q 4.056784889914773 1.7534099786931816 4.0564519708806825 1.7304385653409087 Q 4.05545321377841 1.6944833096590906 4.052456942471592 1.6472088068181816 Q 4.05179110440341 1.6365553977272724 4.057783647017046 1.6313951526988633 Q 4.0637761896306825 1.626234907670454 4.0711004083806825 1.626234907670454 Q 4.0784246271306825 1.626234907670454 4.084417169744319 1.6313951526988633 Q 4.090409712357955 1.6365553977272724 4.089743874289773 1.6520361328124995 Q 4.089078036221592 1.667516867897727 4.08841219815341 1.689489524147727 Q 4.0877463600852275 1.711462180397727 4.087413441051137 1.737929243607954 Q 4.087080522017046 1.7643963068181816 4.087080522017046 1.7966894531249997 Q 4.086747602982955 1.8269850852272724 4.086747602982955 1.9241974431818178 Q 4.108720259232955 1.927526633522727 4.1663152521306825 1.927526633522727 Q 4.221579811789773 1.927526633522727 4.246548739346592 1.9241974431818178 Q 4.246548739346592 1.9115465198863633 4.246548739346592 1.8998943536931814 L 4.246548739346592 1.7940261008522724 M 4.49673739346591 2.171889204545454 Q 4.42715731534091 2.171889204545454 4.394364790482956 2.099978693181818 Q 4.361572265625001 2.0280681818181816 4.361572265625001 1.8875763494318178 Q 4.361572265625001 1.7767143110795451 4.399192116477273 1.7014746093749997 Q 4.417835582386364 1.6648535156249997 4.444469105113638 1.6430473188920451 Q 4.47110262784091 1.6212411221590906 4.50589266690341 1.6212411221590906 Q 4.54068270596591 1.6212411221590906 4.566650390625001 1.6393852095170451 Q 4.592618075284092 1.6575292968749995 4.609596946022728 1.6918199573863633 Q 4.642888849431819 1.759069602272727 4.643554687500001 1.8875763494318178 Q 4.6442205255681825 2.022741477272727 4.604936079545455 2.0979811789772724 Q 4.56631747159091 2.171889204545454 4.49673739346591 2.171889204545454 M 4.541348544034092 1.6603591086647724 Q 4.525701349431819 1.6505379971590906 4.506724964488638 1.6505379971590906 Q 4.487748579545456 1.6505379971590906 4.472434303977273 1.6603591086647724 Q 4.457120028409092 1.670180220170454 4.4446355646306825 1.6874920099431816 Q 4.432151100852273 1.7048037997159087 4.4226629083806825 1.7282745916193178 Q 4.413174715909092 1.751745383522727 4.406516335227273 1.7787118252840906 Q 4.393532492897728 1.8339763849431816 4.393532492897728 1.889074485085227 Q 4.393532492897728 1.9441725852272724 4.397693980823864 1.981459517045454 Q 4.401855468750001 2.018746448863636 4.409179687500001 2.045879350142045 Q 4.416503906250001 2.073012251420454 4.426657936789773 2.0911563387784087 Q 4.436811967329547 2.1093004261363633 4.448464133522728 2.1202867542613633 Q 4.470103870738638 2.139928977272727 4.500066583806819 2.139928977272727 Q 4.588623046875001 2.139928977272727 4.6075994318181825 1.9771315696022724 Q 4.611927379261364 1.9398446377840906 4.611927379261364 1.9012260298295451 Q 4.611927379261364 1.8626074218749997 4.609596946022728 1.8336434659090906 Q 4.607266512784092 1.8046795099431816 4.6021062677556825 1.7778795276988633 Q 4.596946022727273 1.7510795454545451 4.588789506392047 1.7277752130681816 Q 4.580632990056819 1.7044708806818178 4.568814364346592 1.687325550426136 Q 4.556995738636364 1.670180220170454 4.541348544034092 1.6603591086647724 M 4.731944691051138 1.9917800071022724 L 4.732610529119319 1.8509552556818178 Q 4.732610529119319 1.7311044034090906 4.724953391335228 1.6478746448863633 Q 4.723954634232956 1.637221235795454 4.7302800958806825 1.6320609907670451 Q 4.73660555752841 1.6269007457386362 4.744762073863638 1.6269007457386362 Q 4.752918590198864 1.6269007457386362 4.7595769708806825 1.6320609907670451 Q 4.766235351562501 1.637221235795454 4.765569513494319 1.654699485085227 Q 4.764903675426138 1.6721777343749997 4.76407137784091 1.6989777166193178 Q 4.7632390802556825 1.725777698863636 4.762573242187501 1.7557404119318178 Q 4.761241566051138 1.8156658380681816 4.761241566051138 1.864272017045454 Q 4.761241566051138 1.912878196022727 4.7614080255681825 1.9306893643465906 Q 4.761574485085228 1.948500532670454 4.761907404119319 1.9651464843749997 Q 4.763571999289773 2.0537029474431816 4.771894975142047 2.077340198863636 Q 4.780217950994319 2.1009774502840903 4.791204279119319 2.113628373579545 Q 4.813176935369319 2.138930220170454 4.847800514914773 2.138930220170454 Q 4.883422851562501 2.138930220170454 4.906727183948864 2.1126296164772724 Q 4.93069735440341 2.085330255681818 4.934692382812501 2.036391157670454 Q 4.938354492187501 1.9764657315340906 4.938354492187501 1.9401775568181814 Q 4.938354492187501 1.9038893821022724 4.938188032670455 1.8774223188920451 Q 4.93802157315341 1.8509552556818178 4.937355735085228 1.8179962713068178 Q 4.934692382812501 1.722115589488636 4.932029030539773 1.6458771306818178 Q 4.9316961115056825 1.6352237215909087 4.937688654119319 1.6302299360795451 Q 4.943681196732955 1.6252361505681816 4.951338334517047 1.6252361505681816 Q 4.958995472301138 1.6252361505681816 4.965320933948864 1.6302299360795451 Q 4.971646395596592 1.6352237215909087 4.971313476562501 1.6458771306818178 Q 4.969981800426138 1.6954820667613633 4.969815340909092 1.7437553267045451 Q 4.969648881392047 1.792028586647727 4.969315962357955 1.839636008522727 Q 4.968650124289773 1.9551589133522724 4.964988014914773 2.005596147017045 Q 4.961325905539773 2.056033380681818 4.953835227272728 2.081668146306818 Q 4.9463445490056825 2.107302911931818 4.932361949573864 2.1272780539772724 Q 4.901067560369319 2.171889204545454 4.848133433948864 2.171889204545454 Q 4.760575727982956 2.171889204545454 4.738935990767047 2.0750097656249995 Q 4.731944691051138 2.044714133522727 4.731944691051138 2.007427201704545 L 4.731944691051138 1.9917800071022724 M 5.2944113991477275 1.7767143110795451 Q 5.295077237215909 1.7986869673295451 5.279430042613637 1.7986869673295451 Q 5.272771661931818 1.7986869673295451 5.267444957386364 1.793859641335227 Q 5.262118252840909 1.7890323153409087 5.262118252840909 1.7793776633522724 Q 5.262118252840909 1.674841086647727 5.2175071022727275 1.6575292968749995 Q 5.203524502840909 1.6522025923295451 5.181052468039773 1.6538671874999995 Q 5.158580433238637 1.655531782670454 5.139437588778409 1.6743417080965906 Q 5.1202947443181825 1.693151633522727 5.108309659090909 1.7247789417613633 Q 5.0856711647727275 1.7840385298295451 5.0856711647727275 1.8892409446022724 Q 5.0856711647727275 2.1122966974431816 5.1589133522727275 2.1349351917613633 Q 5.171231356534092 2.1385973011363633 5.1845481178977275 2.1385973011363633 Q 5.249134410511364 2.1385973011363633 5.263449928977273 2.0170818536931816 Q 5.267777876420455 1.977797407670454 5.267444957386364 1.9608185369318178 Q 5.237815163352273 1.9591539417613633 5.218172940340909 1.9614843749999997 Q 5.196533203125001 1.964147727272727 5.188543146306818 1.964147727272727 Q 5.180553089488637 1.964147727272727 5.175725763494318 1.9584881036931814 Q 5.170898437500001 1.952828480113636 5.170898437500001 1.9460036399147724 Q 5.170898437500001 1.9391787997159087 5.175892223011364 1.933852095170454 Q 5.1808860085227275 1.9285253906249997 5.191372958096592 1.9300235262784087 Q 5.201859907670455 1.9315216619318178 5.212180397727273 1.9315216619318178 L 5.231489701704546 1.9315216619318178 Q 5.248801491477273 1.9315216619318178 5.2577903053977275 1.930189985795454 Q 5.2734375 1.9278595525568178 5.281094637784092 1.9278595525568178 Q 5.298406427556818 1.9278595525568178 5.298406427556818 1.9475017755681814 Q 5.298406427556818 2.052371271306818 5.267444957386364 2.1119637784090903 Q 5.2358176491477275 2.171889204545454 5.181551846590909 2.171889204545454 Q 5.115966796875001 2.171889204545454 5.084672407670455 2.102974964488636 Q 5.053045099431818 2.032729048295454 5.053045099431818 1.8829154829545451 Q 5.053045099431818 1.6292311789772724 5.187877308238637 1.6215740411931816 Q 5.2944113991477275 1.6159144176136362 5.2944113991477275 1.7767143110795451 M 5.579223632812501 1.7940261008522724 L 5.57889071377841 1.7414248934659087 Q 5.57889071377841 1.728773970170454 5.578724254261364 1.7142919921874997 Q 5.578557794744319 1.6998100142045451 5.578391335227273 1.682997602982954 Q 5.578224875710228 1.6661851917613633 5.577891956676137 1.6503715376420451 Q 5.577559037642046 1.634557883522727 5.5835515802556825 1.6295640980113633 Q 5.589544122869319 1.6245703124999995 5.596202503551137 1.6245703124999995 Q 5.602860884232955 1.6245703124999995 5.608354048295455 1.6295640980113633 Q 5.613847212357955 1.634557883522727 5.613514293323864 1.6452112926136362 Q 5.60818758877841 1.8299813565340906 5.60818758877841 1.934850852272727 Q 5.60818758877841 2.103640802556818 5.610518022017046 2.143258167613636 Q 5.611183860085228 2.153911576704545 5.605690696022728 2.1592382812499995 Q 5.600197531960228 2.164564985795454 5.593705610795455 2.164564985795454 Q 5.5872136896306825 2.164564985795454 5.582053444602273 2.159404740767045 Q 5.576893199573864 2.154244495738636 5.577226118607955 2.143591086647727 Q 5.578557794744319 2.034060724431818 5.579223632812501 1.9554918323863633 Q 5.54959383877841 1.952828480113636 5.49832430752841 1.952828480113636 Q 5.445057262073864 1.952828480113636 5.419422496448864 1.955824751420454 Q 5.419755415482955 2.0563662997159087 5.421752929687501 2.1415935724431816 Q 5.422085848721592 2.1525799005681816 5.416093306107955 2.158239524147727 Q 5.410100763494319 2.1638991477272724 5.403275923295455 2.1638991477272724 Q 5.396451083096592 2.1638991477272724 5.391124378551137 2.1587389026988633 Q 5.3857976740056825 2.153578657670454 5.386463512073864 2.135268110795454 Q 5.387129350142046 2.116957563920454 5.387795188210228 2.0826669034090903 Q 5.38846102627841 2.048376242897727 5.389126864346592 2.0097576349431816 Q 5.389792702414773 1.944838423295454 5.389792702414773 1.8769229403409087 Q 5.389792702414773 1.8090074573863633 5.389626242897728 1.7812087180397724 Q 5.3894597833806825 1.7534099786931816 5.389126864346592 1.7304385653409087 Q 5.388128107244319 1.6944833096590906 5.385131835937501 1.6472088068181816 Q 5.384465997869319 1.6365553977272724 5.390458540482955 1.6313951526988633 Q 5.396451083096592 1.626234907670454 5.403775301846592 1.626234907670454 Q 5.411099520596592 1.626234907670454 5.417092063210228 1.6313951526988633 Q 5.423084605823864 1.6365553977272724 5.4224187677556825 1.6520361328124995 Q 5.421752929687501 1.667516867897727 5.421087091619319 1.689489524147727 Q 5.420421253551137 1.711462180397727 5.420088334517046 1.737929243607954 Q 5.419755415482955 1.7643963068181816 5.419755415482955 1.7966894531249997 Q 5.419422496448864 1.8269850852272724 5.419422496448864 1.9241974431818178 Q 5.441395152698864 1.927526633522727 5.498990145596592 1.927526633522727 Q 5.5542547052556825 1.927526633522727 5.579223632812501 1.9241974431818178 Q 5.579223632812501 1.9115465198863633 5.579223632812501 1.8998943536931814 L 5.579223632812501 1.7940261008522724 M 5.771484375000001 1.6259019886363633 Q 5.780806107954547 1.6259019886363633 5.891335227272728 1.6232386363636362 Q 5.90664950284091 1.6232386363636362 5.912309126420456 1.6348908025568178 Q 5.913640802556819 1.638219992897727 5.913640802556819 1.6425479403409087 Q 5.913640802556819 1.6468758877840906 5.908647017045456 1.6513702947443178 Q 5.903653231534092 1.6558647017045451 5.890003551136365 1.655531782670454 Q 5.876353870738638 1.6551988636363633 5.863536487926138 1.6545330255681816 Q 5.850719105113638 1.6538671874999995 5.839732776988638 1.6535342684659087 Q 5.820090553977273 1.652868430397727 5.806107954545456 1.6532013494318178 Q 5.803444602272728 1.729772727272727 5.803444602272728 1.8193279474431816 Q 5.803444602272728 1.9152086292613633 5.803611061789773 1.9506645063920451 Q 5.803777521306819 1.986120383522727 5.804443359375001 2.018413529829545 Q 5.805442116477273 2.1009774502840903 5.806440873579547 2.1409277343749995 Q 5.806773792613638 2.1522469815340903 5.801280628551138 2.1577401455965903 Q 5.795787464488638 2.1632333096590903 5.789295543323865 2.1632333096590903 Q 5.782803622159092 2.1632333096590903 5.77664462002841 2.1580730646306816 Q 5.770485617897728 2.1529128196022724 5.770485617897728 2.142592329545454 L 5.770152698863638 2.098979936079545 L 5.773481889204547 1.781042258522727 Q 5.773481889204547 1.692152876420454 5.77115145596591 1.6532013494318178 Q 5.753506747159092 1.652868430397727 5.729203657670456 1.6545330255681816 Q 5.700572620738638 1.656530539772727 5.687755237926138 1.657362837357954 Q 5.674937855113638 1.6581951349431816 5.6696111505681825 1.6532013494318178 Q 5.664284446022728 1.648207563920454 5.664284446022728 1.6417156427556816 Q 5.664284446022728 1.6352237215909087 5.6696111505681825 1.6288982599431816 Q 5.674937855113638 1.622572798295454 5.686756480823865 1.6230721768465906 Q 5.698575106534092 1.623571555397727 5.707231001420456 1.6239044744318178 Q 5.715886896306819 1.6242373934659087 5.722378817471592 1.6245703124999995 Q 5.728870738636365 1.6249032315340906 5.733864524147728 1.6252361505681816 Q 5.738858309659092 1.6255690696022724 5.744018554687501 1.6257355291193178 Q 5.74917879971591 1.6259019886363633 5.755837180397728 1.6259019886363633 L 5.771484375000001 1.6259019886363633 M 6.021007191051138 2.1482519531249995 Q 6.021007191051138 2.186870561079545 5.995705344460228 2.2181649502840903 Q 5.976063121448865 2.241469282670454 5.966075550426138 2.231148792613636 Q 5.963745117187502 2.2284854403409087 5.963745117187502 2.2248233309659087 Q 5.963745117187502 2.2181649502840903 5.97073641690341 2.209509055397727 Q 5.988381125710228 2.187536399147727 5.98904696377841 2.1635662286931816 Q 5.981056906960228 2.1668954190340903 5.973066850142047 2.161901633522727 Q 5.957752574573865 2.1529128196022724 5.957752574573865 2.1397625177556816 Q 5.957752574573865 2.1266122159090903 5.966408469460228 2.1186221590909087 Q 5.975064364346593 2.110632102272727 5.985218394886365 2.110632102272727 Q 5.995372425426138 2.110632102272727 6.001032049005683 2.1134619140624995 Q 6.006691672585228 2.1162917258522724 6.011352539062502 2.121618430397727 Q 6.021007191051138 2.132604758522727 6.021007191051138 2.1482519531249995 M 6.342939897017048 1.6245703124999995 Q 6.350929953835229 1.6245703124999995 6.357588334517048 1.6312286931818178 Q 6.364246715198866 1.6378870738636362 6.368075284090911 1.6590274325284087 Q 6.371903852982957 1.6801677911931816 6.379727450284093 1.7194522372159087 Q 6.387551047585229 1.758736683238636 6.397205699573866 1.8033478338068178 Q 6.406860351562502 1.8479589843749997 6.417513760653411 1.895399946732954 Q 6.42816716974432 1.9428409090909087 6.438820578835229 1.9874520596590906 Q 6.464455344460229 2.091988636363636 6.4787708629261385 2.140261896306818 Q 6.482100053267048 2.1525799005681816 6.4769398082386385 2.1599041193181816 Q 6.471779563210229 2.1672283380681816 6.465454101562502 2.1672283380681816 Q 6.459128639914775 2.1672283380681816 6.453968394886366 2.1635662286931816 Q 6.448808149857957 2.1599041193181816 6.444813121448866 2.1419264914772724 Q 6.440818093039775 2.1239488636363633 6.43182927911932 2.0836656605113633 Q 6.422840465198866 2.0433824573863633 6.412519975142048 1.997106711647727 Q 6.412187056107957 1.9951091974431814 6.411854137073866 1.993444602272727 Q 6.389215642755683 1.992445845170454 6.347933682528411 1.992445845170454 Q 6.2993275035511385 1.992445845170454 6.2736927379261385 1.9937775213068178 Q 6.273359818892048 1.9957750355113633 6.273026899857957 1.9977725497159087 Q 6.252718838778411 2.095650745738636 6.243064186789775 2.1492507102272724 Q 6.239734996448866 2.1662295809659087 6.225419477982957 2.1662295809659087 Q 6.210438121448866 2.1662295809659087 6.207108931107957 2.1515811434659087 Q 6.206110174005683 2.147253196022727 6.209106445312502 2.1379314630681816 Q 6.21210271661932 2.128609730113636 6.217928799715911 2.1058047762784087 Q 6.223754882812502 2.0829998224431816 6.230579723011366 2.053536487926136 Q 6.237404563210229 2.0240731534090903 6.24506170099432 1.9891166548295451 Q 6.252718838778411 1.9541601562499997 6.260708895596593 1.9172061434659087 Q 6.268698952414775 1.8802521306818178 6.276689009232957 1.8427987393465906 Q 6.2846790660511385 1.8053453480113633 6.2920032848011385 1.7703888494318178 Q 6.2993275035511385 1.7354323508522724 6.305819424715911 1.7048037997159087 Q 6.312311345880683 1.6741752485795451 6.316306374289775 1.6561976207386362 Q 6.322631835937502 1.6245703124999995 6.342939897017048 1.6245703124999995 M 6.280018199573866 1.9628160511363633 Q 6.305320046164775 1.964147727272727 6.348266601562502 1.964147727272727 Q 6.383888938210229 1.964147727272727 6.405195756392048 1.963148970170454 Q 6.3982044566761385 1.9328533380681814 6.391213156960229 1.900893110795454 Q 6.380226828835229 1.8512881747159087 6.370239257812502 1.8046795099431816 Q 6.353593306107957 1.7284410511363633 6.341608220880683 1.670846058238636 Q 6.333951083096593 1.7091317471590906 6.319635564630683 1.7750497159090906 Q 6.300992098721593 1.8629403409090906 6.291337446732957 1.908883167613636 Q 6.285677823153411 1.9365154474431814 6.280018199573866 1.9628160511363633 M 6.806529651988638 1.6425479403409087 Q 6.804532137784093 1.8083416193181816 6.804532137784093 1.877089399857954 Q 6.804532137784093 1.945837180397727 6.804698597301138 1.9779638671874997 Q 6.804865056818183 2.0100905539772724 6.805197975852274 2.0390545099431816 Q 6.805863813920456 2.1003116122159087 6.806696111505683 2.122783647017045 Q 6.807528409090911 2.1452556818181816 6.805530894886365 2.1495836292613633 Q 6.80353338068182 2.153911576704545 6.800204190340911 2.1569078480113633 Q 6.786554509943183 2.169225852272727 6.771240234375002 2.1592382812499995 Q 6.765247691761365 2.1552432528409087 6.762584339488638 2.147253196022727 Q 6.733287464488638 2.0613600852272724 6.692005504261365 1.9606520774147724 Q 6.650723544034093 1.8599440696022724 6.634410511363638 1.8183291903409087 Q 6.604780717329547 1.7427565696022724 6.582808061079547 1.6798348721590906 L 6.587136008522729 2.1442569247159087 Q 6.587136008522729 2.154577414772727 6.581809303977274 2.1595712002840903 Q 6.57648259943182 2.164564985795454 6.569657759232956 2.164564985795454 Q 6.562832919034093 2.164564985795454 6.557006835937502 2.159071821732954 Q 6.551180752840911 2.153578657670454 6.551513671875002 2.142592329545454 Q 6.554842862215911 2.051039595170454 6.554842862215911 1.933852095170454 L 6.554842862215911 1.7364311079545451 Q 6.554842862215911 1.684828657670454 6.554177024147729 1.6475417258522724 Q 6.554177024147729 1.6352237215909087 6.561667702414774 1.6287318004261362 Q 6.56915838068182 1.6222398792613633 6.577481356534093 1.6222398792613633 Q 6.596124822443183 1.6222398792613633 6.60211736505682 1.6398845880681816 Q 6.608109907670456 1.6575292968749995 6.619096235795456 1.687325550426136 Q 6.630082563920456 1.7171218039772724 6.643732244318183 1.753576438210227 Q 6.657381924715911 1.7900310724431816 6.673029119318183 1.8308136541193178 Q 6.688676313920456 1.871596235795454 6.704323508522729 1.9120458984374997 Q 6.719970703125002 1.9524955610795451 6.734619140625002 1.9904483309659087 Q 6.749267578125002 2.0284011008522724 6.761252663352274 2.059362571022727 Q 6.773237748579547 2.0903240411931816 6.78156072443182 2.1122966974431816 Q 6.781893643465911 2.113295454545454 6.782226562500002 2.113961292613636 Q 6.779563210227274 2.048709161931818 6.77789861505682 1.9718048650568178 Q 6.776234019886365 1.8782546164772724 6.775068803267047 1.8316459517045451 Q 6.773903586647728 1.7850372869318178 6.772738370028411 1.7372634055397724 Q 6.771573153409093 1.689489524147727 6.769908558238638 1.6425479403409087 Q 6.769908558238638 1.6318945312499995 6.775734641335228 1.6267342862215906 Q 6.78156072443182 1.6215740411931816 6.788552024147728 1.6215740411931816 Q 6.795543323863638 1.6215740411931816 6.801036487926138 1.6267342862215906 Q 6.806529651988638 1.6318945312499995 6.806529651988638 1.6425479403409087 M 7.039073597301138 2.0463787286931816 L 7.041404030539774 2.143258167613636 Q 7.041404030539774 2.158239524147727 7.027088512073865 2.1635662286931816 Q 7.023426402698865 2.164897904829545 7.018432617187502 2.164897904829545 Q 7.013438831676138 2.164897904829545 7.007779208096593 2.159404740767045 Q 7.002119584517047 2.153911576704545 7.00311834161932 2.142092950994318 Q 7.004117098721593 2.1302743252840903 7.005448774857956 2.1186221590909087 Q 7.00678045099432 2.106969992897727 7.007779208096593 2.094984907670454 Q 7.010109641335228 2.067019708806818 7.010109641335228 2.051372514204545 Q 7.010109641335228 2.0357253196022724 7.009776722301138 2.0244060724431816 Q 7.009443803267047 2.0130868252840903 7.008777965198865 2.001101740056818 Q 7.008445046164774 1.9914470880681814 7.007779208096593 1.9794620028409087 Q 6.996792879971593 1.9514968039772724 6.983476118607956 1.919869495738636 Q 6.96649724786932 1.8785875355113633 6.94818670099432 1.8339763849431816 Q 6.872946999289774 1.652868430397727 6.872946999289774 1.6378870738636362 Q 6.872946999289774 1.6295640980113633 6.877940784801138 1.6245703124999995 Q 6.882934570312502 1.6195765269886362 6.890758167613638 1.6192436079545451 Q 6.898581764914774 1.618910688920454 6.902909712357956 1.624403852982954 Q 6.907237659801138 1.629897017045454 6.915727095170456 1.659193892045454 Q 6.924216530539774 1.688490767045454 6.94086248224432 1.7346000532670451 Q 6.957508433948865 1.780709339488636 6.974487304687502 1.8226571377840906 Q 6.996792879971593 1.8782546164772724 7.024758078835228 1.9408433948863633 Q 7.029751864346593 1.927193714488636 7.035411487926138 1.911879438920454 Q 7.045066139914774 1.886910511363636 7.055220170454547 1.859444691051136 Q 7.06537420099432 1.831978870738636 7.075861150568183 1.8031813742897724 Q 7.086348100142047 1.7743838778409087 7.096002752130683 1.7467515980113633 Q 7.119307084517047 1.6791690340909087 7.125632546164774 1.6566969992897724 Q 7.131958007812502 1.6342249644886362 7.136285955255683 1.6257355291193178 Q 7.140613902698865 1.6172460937499995 7.149269797585228 1.6172460937499995 Q 7.165249911221593 1.6172460937499995 7.165249911221593 1.6328932883522724 Q 7.165249911221593 1.6448783735795451 7.141446200284093 1.706801313920454 Q 7.117642489346593 1.7687242542613633 7.110817649147728 1.7882000177556816 Q 7.103992808948865 1.8076757812499997 7.097667347301138 1.8248211115056816 Q 7.091341885653411 1.8419664417613633 7.084017666903411 1.8614422052556814 Q 7.076693448153411 1.8809179687499997 7.068869850852274 1.9013924893465906 Q 7.061046253551138 1.9218670099431814 7.054054953835228 1.9405104758522724 Q 7.046064897017047 1.960485617897727 7.040738192471593 1.974135298295454 Q 7.039073597301138 2.033394886363636 7.039073597301138 2.0463787286931816 M 7.28726473721591 1.6259019886363633 Q 7.296586470170456 1.6259019886363633 7.407115589488638 1.6232386363636362 Q 7.422429865056819 1.6232386363636362 7.428089488636365 1.6348908025568178 Q 7.429421164772728 1.638219992897727 7.429421164772728 1.6425479403409087 Q 7.429421164772728 1.6468758877840906 7.424427379261365 1.6513702947443178 Q 7.419433593750001 1.6558647017045451 7.405783913352274 1.655531782670454 Q 7.392134232954547 1.6551988636363633 7.379316850142047 1.6545330255681816 Q 7.366499467329547 1.6538671874999995 7.355513139204547 1.6535342684659087 Q 7.3358709161931825 1.652868430397727 7.321888316761365 1.6532013494318178 Q 7.319224964488638 1.729772727272727 7.319224964488638 1.8193279474431816 Q 7.319224964488638 1.9152086292613633 7.3193914240056825 1.9506645063920451 Q 7.319557883522728 1.986120383522727 7.32022372159091 2.018413529829545 Q 7.3212224786931825 2.1009774502840903 7.322221235795456 2.1409277343749995 Q 7.322554154829547 2.1522469815340903 7.317060990767047 2.1577401455965903 Q 7.311567826704547 2.1632333096590903 7.305075905539774 2.1632333096590903 Q 7.298583984375001 2.1632333096590903 7.292424982244319 2.1580730646306816 Q 7.286265980113638 2.1529128196022724 7.286265980113638 2.142592329545454 L 7.285933061079547 2.098979936079545 L 7.289262251420456 1.781042258522727 Q 7.289262251420456 1.692152876420454 7.286931818181819 1.6532013494318178 Q 7.269287109375001 1.652868430397727 7.244984019886365 1.6545330255681816 Q 7.216352982954547 1.656530539772727 7.203535600142047 1.657362837357954 Q 7.190718217329547 1.6581951349431816 7.185391512784092 1.6532013494318178 Q 7.180064808238638 1.648207563920454 7.180064808238638 1.6417156427556816 Q 7.180064808238638 1.6352237215909087 7.185391512784092 1.6288982599431816 Q 7.190718217329547 1.622572798295454 7.202536843039774 1.6230721768465906 Q 7.214355468750001 1.623571555397727 7.223011363636365 1.6239044744318178 Q 7.231667258522728 1.6242373934659087 7.238159179687501 1.6245703124999995 Q 7.244651100852274 1.6249032315340906 7.249644886363638 1.6252361505681816 Q 7.254638671875001 1.6255690696022724 7.25979891690341 1.6257355291193178 Q 7.264959161931819 1.6259019886363633 7.271617542613638 1.6259019886363633 L 7.28726473721591 1.6259019886363633 M 7.526966441761365 1.7272758345170451 Q 7.526799982244319 1.7454199218749997 7.526799982244319 1.8732608309659087 Q 7.526799982244319 2.001101740056818 7.530795010653411 2.1422594105113633 Q 7.531127929687502 2.1529128196022724 7.524636008522728 2.158572443181818 Q 7.518144087357956 2.1642320667613633 7.510986328125002 2.1642320667613633 Q 7.503828568892047 2.1642320667613633 7.498335404829547 2.1592382812499995 Q 7.492842240767047 2.154244495738636 7.493508078835228 2.1369327059659087 Q 7.494173916903411 2.1196209161931816 7.494839754971593 2.088992365056818 Q 7.495505593039774 2.058363813920454 7.496171431107956 2.0237402343749995 Q 7.497503107244319 1.9551589133522724 7.497503107244319 1.8957328657670451 Q 7.497503107244319 1.8363068181818178 7.497336647727274 1.8031813742897724 Q 7.497170188210228 1.770055930397727 7.496504350142047 1.7420907315340906 Q 7.495505593039774 1.6801677911931816 7.492842240767047 1.6432137784090906 Q 7.491843483664774 1.6325603693181816 7.496670809659093 1.6274001242897724 Q 7.501498135653411 1.6222398792613633 7.509155273437502 1.6222398792613633 Q 7.516812411221593 1.6222398792613633 7.523470791903411 1.6274001242897724 Q 7.530129172585228 1.6325603693181816 7.529629794034093 1.6448783735795451 Q 7.529130415482956 1.6571963778409087 7.528631036931819 1.6691814630681816 Q 7.528131658380683 1.681166548295454 7.527632279829547 1.6951491477272724 Q 7.527132901278411 1.7091317471590906 7.526966441761365 1.7272758345170451 M 7.977072975852273 1.7467515980113633 L 7.977405894886365 1.8669353693181814 Q 7.977405894886365 1.9927787642045451 7.982732599431819 2.143591086647727 Q 7.98306551846591 2.154244495738636 7.977239435369319 2.1592382812499995 Q 7.971413352272728 2.1642320667613633 7.964089133522728 2.1642320667613633 Q 7.956764914772728 2.1642320667613633 7.950772372159092 2.158572443181818 Q 7.944779829545456 2.1529128196022724 7.944779829545456 2.1422594105113633 Q 7.949773615056819 1.992445845170454 7.949773615056819 1.8925701349431814 L 7.949773615056819 1.7201180752840906 Q 7.949773615056819 1.7008087713068178 7.949440696022728 1.6838299005681816 Q 7.942116477272728 1.7121280184659087 7.930464311079547 1.7574050071022724 Q 7.903830788352273 1.856947798295454 7.893177379261365 1.8950670276988633 Q 7.882523970170456 1.9331862571022724 7.871870561079547 1.9701402698863633 Q 7.849897904829547 2.0463787286931816 7.830921519886365 2.1039737215909087 Q 7.828924005681819 2.110632102272727 7.823097922585228 2.113961292613636 Q 7.817271839488638 2.117290482954545 7.8119451349431825 2.117290482954545 Q 7.801624644886365 2.117290482954545 7.797962535511365 2.1039737215909087 Q 7.79629794034091 2.098647017045454 7.790138938210228 2.0781724964488633 Q 7.783979936079547 2.0576979758522724 7.774824662642047 2.027568803267045 Q 7.765669389204547 1.9974396306818178 7.754516601562501 1.9599862393465906 Q 7.743363813920456 1.9225328480113633 7.731545188210228 1.883248401988636 Q 7.719726562500001 1.8439639559659087 7.70840731534091 1.8053453480113633 Q 7.697088068181819 1.7667267400568178 7.687766335227274 1.7341006747159087 Q 7.6801091974431825 1.7071342329545451 7.674782492897728 1.6874920099431816 L 7.67544833096591 1.770055930397727 Q 7.67544833096591 1.9208682528409087 7.678611061789774 2.019412286931818 Q 7.681773792613638 2.117956321022727 7.682106711647728 2.1339364346590903 Q 7.682439630681819 2.149916548295454 7.680608575994319 2.153578657670454 Q 7.678777521306819 2.157240767045454 7.675781250000001 2.1595712002840903 Q 7.662797407670456 2.1705575284090903 7.650146484375001 2.1589053622159087 Q 7.644153941761365 2.1532457386363633 7.644986239346592 2.138930220170454 Q 7.645818536931819 2.124614701704545 7.646484375000001 2.1031414240056816 Q 7.6471502130681825 2.081668146306818 7.647483132102274 2.0576979758522724 Q 7.648814808238638 2.001101740056818 7.648814808238638 1.952828480113636 L 7.644819779829547 1.6498721590909087 Q 7.644819779829547 1.6348908025568178 7.651811079545456 1.6287318004261362 Q 7.658802379261365 1.622572798295454 7.66812411221591 1.622572798295454 Q 7.685768821022728 1.622572798295454 7.692427201704547 1.6438796164772724 Q 7.693093039772728 1.6458771306818178 7.695922851562501 1.6556982421874995 Q 7.698752663352274 1.6655193536931816 7.703413529829547 1.6813330078124997 Q 7.708074396306819 1.6971466619318178 7.714233398437501 1.7179541015624997 Q 7.7203924005681825 1.7387615411931816 7.727383700284092 1.762731711647727 Q 7.734375000000001 1.7867018821022724 7.742032137784092 1.813002485795454 Q 7.768665660511365 1.904555220170454 7.8156072443181825 2.0636905184659087 Q 7.84024325284091 1.993444602272727 7.906494140625001 1.7450870028409087 Q 7.919477982954547 1.695814985795454 7.932461825284092 1.644545454545454 Q 7.938454367897728 1.6215740411931816 7.960094105113638 1.6215740411931816 Q 7.968750000000001 1.6215740411931816 7.97391024502841 1.6300634765624995 Q 7.979070490056819 1.6385529119318178 7.978404651988638 1.6545330255681816 Q 7.977072975852273 1.6768386008522724 7.977072975852273 1.7467515980113633 M 8.119728781960228 1.981459517045454 L 8.12039462002841 2.099645774147727 Q 8.12039462002841 2.1156258877840903 8.12039462002841 2.1269451349431816 Q 8.1207275390625 2.131938920454545 8.1207275390625 2.135601029829545 Q 8.20462313565341 2.135601029829545 8.232255415482955 2.132937677556818 Q 8.260886452414773 2.1299414062499995 8.265547318892047 2.1312730823863633 Q 8.270208185369318 2.132604758522727 8.273537375710228 2.135601029829545 Q 8.280195756392047 2.1415935724431816 8.280195756392047 2.148751331676136 Q 8.280195756392047 2.1559090909090903 8.273870294744318 2.1610693359374995 Q 8.267544833096592 2.1662295809659087 8.2562255859375 2.165563742897727 Q 8.201626864346592 2.161235795454545 8.157681551846592 2.164065607244318 Q 8.113736239346592 2.1668954190340903 8.108409534801137 2.167727716619318 Q 8.103082830255682 2.168560014204545 8.098921342329547 2.167727716619318 Q 8.09475985440341 2.1668954190340903 8.0914306640625 2.1642320667613633 Q 8.08377352627841 2.158572443181818 8.084439364346592 2.147586115056818 Q 8.089433149857955 2.051372514204545 8.089433149857955 1.9346843927556814 Q 8.089433149857955 1.8179962713068178 8.089599609375 1.7878670987215906 Q 8.089766068892047 1.7577379261363633 8.089766068892047 1.7327689985795451 Q 8.089100230823865 1.6791690340909087 8.08743563565341 1.6570299183238633 Q 8.085771040482955 1.6348908025568178 8.088267933238637 1.6305628551136362 Q 8.090764825994318 1.626234907670454 8.094426935369318 1.6242373934659087 Q 8.099420720880682 1.6219069602272724 8.107077858664773 1.6232386363636362 Q 8.121060458096592 1.6255690696022724 8.144031871448865 1.6255690696022724 Q 8.188310102982955 1.6255690696022724 8.204456676136365 1.6237380149147724 Q 8.220603249289773 1.6219069602272724 8.225264115767047 1.6234050958806816 Q 8.229924982244318 1.6249032315340906 8.232921253551137 1.6275665838068178 Q 8.239579634232955 1.6328932883522724 8.239579634232955 1.6405504261363633 Q 8.239579634232955 1.648207563920454 8.233587091619318 1.6532013494318178 Q 8.227594549005682 1.6581951349431816 8.217274058948865 1.6576957563920451 Q 8.206953568892047 1.6571963778409087 8.195301402698865 1.6563640802556816 Q 8.183649236505682 1.655531782670454 8.170332475142047 1.6548659446022724 Q 8.14236727627841 1.6538671874999995 8.121726296164773 1.655531782670454 Q 8.121726296164773 1.6844957386363633 8.121393377130682 1.7131267755681816 Q 8.121060458096592 1.747084517045454 8.1207275390625 1.7820410156249997 Q 8.119728781960228 1.875924183238636 8.119728781960228 1.9205353338068178 Q 8.161343661221592 1.9205353338068178 8.180985884232955 1.9185378196022724 Q 8.202292702414773 1.916207386363636 8.207785866477273 1.9205353338068178 Q 8.213279030539773 1.9248632812499997 8.213279030539773 1.9321874999999997 Q 8.213279030539773 1.9504980468749997 8.17898837002841 1.9498322088068178 Q 8.1719970703125 1.949499289772727 8.166337446732955 1.949499289772727 L 8.139371004971592 1.949166370738636 L 8.119728781960228 1.949166370738636 L 8.119728781960228 1.981459517045454 M 8.390558416193182 2.1336035156249995 Q 8.393221768465908 2.138930220170454 8.393221768465908 2.146587357954545 Q 8.393221768465908 2.154244495738636 8.390225497159092 2.159737659801136 Q 8.387229225852273 2.165230823863636 8.382568359375 2.168560014204545 Q 8.373579545454545 2.1745525568181816 8.361261541193182 2.1745525568181816 Q 8.343616832386363 2.1745525568181816 8.335959694602273 2.158572443181818 Q 8.333629261363637 2.1532457386363633 8.333629261363637 2.146254438920454 Q 8.333629261363637 2.1262792968749995 8.352938565340908 2.1196209161931816 Q 8.358265269886363 2.117956321022727 8.363425514914773 2.117956321022727 Q 8.368585759943182 2.117956321022727 8.373912464488637 2.1196209161931816 Q 8.379239169034092 2.121285511363636 8.383567116477273 2.1247811612215903 Q 8.387895063920455 2.128276811079545 8.390558416193182 2.1336035156249995"
                  fill="#343432" fill-rule="nonzero"></path>
        </g>
    </g>
    <defs>
        <clipPath id="SvgjsClipPath1000">
            <path d=" M -4.939731482225785 -1.1877497077322106 h 4.539731482225784 v 4.539731482225784 h -4.539731482225784 Z"></path>
        </clipPath>
        <mask id="maskedMgText-8350cb51-6cd7-4812-9cba-2685de39ad2c">
            <path d=" M -4.939731482225785 -1.1877497077322106 L -0.40000000000000036 -1.1877497077322106 L -0.40000000000000036 3.3519817744935736 L -4.939731482225785 3.3519817744935736 Z"
                  fill="#ffffff" transform="matrix(1,0,0,1,0,0)" fill-rule="nonzero"></path>
            <path d=" M -2.3730988420981327 0.06883085566361924 L -1.603109050059837 0.06883085566361924 L -1.603109050059837 0.43644750984856917 L -1.7675339535680146 0.43644750984856917 L -1.7675339535680146 2.0954012110977445 L -2.2113475142567545 2.0954012110977445 L -3.05486063713204 0.785349134365922 L -3.05486063713204 1.7291213447461942 L -2.885088582290263 1.7291213447461942 L -2.885088582290263 2.0954012110977445 L -3.6537415864951592 2.0954012110977445 L -3.6537415864951592 1.7291213447461942 L -3.4866431073201816 1.7291213447461942 L -3.4866431073201816 0.43644750984856917 L -3.6510680108283595 0.43644750984856917 L -3.6510680108283595 0.06883085566361924 L -3.0388191831312423 0.06883085566361924 L -2.200653211589556 1.3962611742296391 L -2.200653211589556 0.43644750984856917 L -2.3730988420981327 0.43644750984856917 L -2.3730988420981327 0.06883085566361924"
                  fill="NA" transform="matrix(1,0,0,1,0,0)" fill-rule="nonzero"></path>
        </mask>
    </defs>
</svg>